PathFileType	4	(X/Y/Z)	63_2_58_p0_0-387_filt_butterworth.trc
DataRate	CameraRate	NumFrames	NumMarkers	Units	OrigDataRate	OrigDataStartFrame	OrigNumFrames
60.0	60.0	6	27	m	60.0	96	387
Frame#	Time	RHip			RKnee			RAnkle			RBigToe			RSmallToe			RHeel			LHip			LKnee			LAnkle			LBigToe			LSmallToe			LHeel			Neck			Head			Nose			RShoulder			RElbow			RWrist			RThumb			RIndex			RPinky			LShoulder			LElbow			LWrist			LThumb			LIndex			LPinky			
		X1	Y1	Z1	X2	Y2	Z2	X3	Y3	Z3	X4	Y4	Z4	X5	Y5	Z5	X6	Y6	Z6	X7	Y7	Z7	X8	Y8	Z8	X9	Y9	Z9	X10	Y10	Z10	X11	Y11	Z11	X12	Y12	Z12	X13	Y13	Z13	X14	Y14	Z14	X15	Y15	Z15	X16	Y16	Z16	X17	Y17	Z17	X18	Y18	Z18	X19	Y19	Z19	X20	Y20	Z20	X21	Y21	Z21	X22	Y22	Z22	X23	Y23	Z23	X24	Y24	Z24	X25	Y25	Z25	X26	Y26	Z26	X27	Y27	Z27	
96	1.6	0.32848466817998545	0.6972271571532582	0.8056959039923579	0.3380586541506886	0.28796399558050334	0.8329517456538097	0.3299088190792331	-0.19062411271760316	0.9425557016758841	0.31280549241501543	-0.12609580007606117	0.6467506193969953	0.3781776550797731	-0.13344194821068522	0.6940379639548157	0.324358382092735	-0.23909494223882843	0.9584868617371144	0.1418710661777551	0.7053087563007492	0.7598868404809874	0.15695480275491636	0.3032194443859496	0.8147986161204859	0.16318914201384044	-0.14363911148548564	0.8724765172225307	0.15243587058000838	-0.11512003202591606	0.6431095027019674	0.09838618887304931	-0.12399955237624888	0.6880181565912649	0.1880021022840563	-0.2478258353380116	0.9514673432612275	0.19882927858644545	1.2865551811166749	0.7386024601183028	0.18983264972494115	1.5272743975709129	0.7152603482253315	0.1893559742128212	1.407247919913767	0.6657843597344648	0.35799993239285166	1.1990890625512123	0.7497161534750574	0.41414191908825454	0.930505566017853	0.7931294087267553	0.4084005329615121	0.7346108124299234	0.6569830372784567	0.3395631329152582	0.6287388039919056	0.6209681179664711	0.3685188803702098	0.5918247036555176	0.6357724404431867	0.4075628751299928	0.5664898164799386	0.7002259933683075	0.047433221885394755	1.1805369430739867	0.7877273285624271	0.03572302398649087	0.908972416248536	0.7370994232871123	0.05742257186806038	0.6999383344903942	0.6971141176973058	0.1303186456601971	0.6050160541012979	0.6967011153740452	0.09438472311996837	0.6036535626161703	0.6402684194042076	0.046055482830082164	0.5875514386408672	0.7034706572242424	
97	1.6166666666666667	0.32875413086670635	0.6969193583301161	0.8058995971466117	0.33742133849411593	0.28908694820365355	0.831225346128582	0.32997307790512326	-0.1903834585264186	0.9419415327701381	0.3110715963716658	-0.12625662871382334	0.6471138851833627	0.3765232561954762	-0.133946881199302	0.6944160803003474	0.3243507208583771	-0.2390772014695172	0.9584893970724366	0.14165368856555996	0.7054528240704994	0.7601836435563118	0.1569378217911245	0.30472878844413714	0.812338169195909	0.16309341906998087	-0.14311470829939055	0.8722829431665874	0.15199806232139945	-0.11484392278993592	0.6414042016112403	0.09703971136369392	-0.12379707868679254	0.6875632302939598	0.18798272268547211	-0.24776374454172703	0.9514173133260785	0.19881885301156194	1.2866698232185874	0.7385694618998586	0.18977810989187502	1.5273358750209864	0.7151336698489568	0.18929843077167002	1.407223168069419	0.6659234562720313	0.3587878453697079	1.1979227490722428	0.7500222287061908	0.414141773509893	0.9305708740188557	0.7930741418347211	0.4084795876511692	0.7334197915408576	0.6571368425551036	0.3396808742564572	0.6265307581899269	0.6213267906643468	0.36839350905728413	0.5891181801105491	0.6411071798664874	0.4075198464319424	0.5648053938112606	0.7007051139177022	0.047461339484056106	1.1802200412230666	0.7877825089616176	0.035687824222527954	0.9082309872308397	0.7375245318329078	0.0561767507983959	0.6974889534618252	0.7021639591339139	0.12620997283887694	0.6054303428069595	0.6939267917899221	0.09188317423015249	0.6028075300844695	0.6377782376714034	0.044620189575295274	0.5866200754250388	0.7031857362513156	
98	1.6333333333333333	0.3289941818259775	0.6966086456722757	0.8061238742609473	0.33686365806736546	0.2901181515124248	0.8297342219959715	0.3300644806374518	-0.18998052511496755	0.9410819364513368	0.30922498934081555	-0.12652571953510974	0.6477871772565139	0.3748112451743749	-0.13459357089958962	0.6950984629060802	0.3243430875743742	-0.2390604685186733	0.9584871963239071	0.14141609994799811	0.7054104983388177	0.7605885091765041	0.15683686888362258	0.30643865668200104	0.8097481883423852	0.16299518077611197	-0.1426117113372018	0.8720919321984195	0.15138409058757085	-0.11432691772071787	0.6390664218521585	0.09584178365291772	-0.12324483493571306	0.6865736119021211	0.1879676389488646	-0.2477104284163172	0.951383897839246	0.19880942848150346	1.2867536910701058	0.7385535580734776	0.18973251176797207	1.5272409022906326	0.7150988558432174	0.18923057435830318	1.40719742460754	0.6660828561158341	0.3588427410114299	1.1965358446190308	0.7501096903590977	0.41412561304625123	0.930593001781689	0.7930525320462226	0.40862345620429447	0.7315225533941927	0.6572454369152128	0.33983628671917376	0.6241989105602139	0.6217849323750841	0.3684495080204018	0.5863774058745154	0.6468632751348744	0.40743631983025586	0.5632787859067167	0.7012922082060682	0.04752048442312565	1.1796737589230744	0.7878921999827408	0.035631262283052606	0.9070449596342292	0.737893957908959	0.05512654487570286	0.6956890609382103	0.7061170193672218	0.12175503815274728	0.6067360277032741	0.6896365327083367	0.08960595165334903	0.6018572081564322	0.6360653180530366	0.04301935803696465	0.5856168482303485	0.7028390529095119	
99	1.65	0.32920899452334873	0.6963330686770791	0.8063389148145736	0.33639543134445415	0.29102078192985725	0.828554615792361	0.33018086617929404	-0.18943478320924018	0.9401608814327224	0.30762775405411624	-0.126576566078338	0.6484756935102951	0.3733516363178736	-0.13508419129741708	0.695690067444166	0.32433690550347616	-0.23904428020998322	0.9584811034647622	0.14117633463941168	0.7052103119755042	0.7610589315003544	0.15678735607401623	0.3082131942076437	0.8070680820980609	0.1629052099040896	-0.142144310710708	0.8719128212757004	0.150692948591997	-0.11362369945808909	0.6363374307452703	0.09504271910789966	-0.12222579953532808	0.6848841538130879	0.18795707417868338	-0.2476700715971801	0.9513714086996311	0.1988157568700762	1.2866652232438904	0.738584303784798	0.1896662767823719	1.5269029487225345	0.715048574040241	0.18928349050571186	1.4072206359979094	0.6658367256141566	0.35810592222850873	1.1951986177587082	0.7500487435364254	0.4141164073986546	0.9304401419491641	0.7931062685463621	0.4088565269956794	0.7289551084257784	0.6573340538614425	0.3400191672611269	0.6220494066913267	0.6221550309938947	0.36868102675206504	0.5838761465043613	0.6521942650919523	0.4073211490753661	0.562112427202196	0.7018810041092178	0.04761156376956714	1.1789987025617328	0.7880547214513578	0.0355490444545673	0.905524789229154	0.738222235624413	0.05448440542812631	0.6947581218425603	0.7083722910738854	0.11730884887956357	0.6086526986366094	0.6842357633808496	0.0876715752704889	0.6007842276418849	0.6352606341090661	0.04098069654466645	0.5844861950346084	0.7029034952012154	
100	1.6666666666666667	0.3294032331603806	0.6960926635176748	0.8065362551064987	0.3360143379507076	0.2918182840142638	0.8276591617679947	0.3303431009802833	-0.18872352777973855	0.9391433690070251	0.3065856691422393	-0.12614745626639867	0.6486417145793324	0.37242910836828313	-0.13498153291719492	0.6955557169902238	0.32433230839853283	-0.23902615187925397	0.9584709678502368	0.14094060440482553	0.7049012977049012	0.7615976786788438	0.15684335107291383	0.3098835201487946	0.8043433240645221	0.16282842842026604	-0.14172759634954518	0.8717524422737739	0.15002086247321952	-0.11282639641459946	0.6335596080346421	0.09482215139336057	-0.12072523132625801	0.6824787039404422	0.1879529693989239	-0.2476434394622717	0.9513805291995218	0.19885153382528908	1.2863025433026891	0.7386764344772987	0.18964077907730625	1.5263350250796648	0.7149528089397876	0.18954749371101107	1.4073151367166814	0.6650237925318319	0.3569608238958133	1.1941196531746152	0.7499104274341433	0.4141516735241039	0.9300214974003935	0.7933060386358572	0.4091814567603582	0.7259088409901149	0.6574548472888546	0.3401879775583443	0.6201880540748659	0.6222998199422727	0.36905471910414384	0.5818409571270651	0.6563002306045628	0.4072453581220784	0.5615438292439398	0.7021077165715541	0.04773661374282056	1.178299553804219	0.7882602482867993	0.03545829605877528	0.9038209250519141	0.7385778171237789	0.05425484181317988	0.6945880715609554	0.7089116147798419	0.11318428920498272	0.6108135061425094	0.6784541966953344	0.08621870445756918	0.5996426394475196	0.6349834680999897	0.03846288695439146	0.5830876916486034	0.7036853140076919	
101	1.6833333333333331	0.32958736313863746	0.6958497385554113	0.8067060226980868	0.335718451271358	0.29250795881571134	0.827004724526061	0.33056740421772446	-0.187818135742487	0.9378807945031086	0.3062946497271723	-0.12514132059209604	0.6478165247784545	0.3722243654378075	-0.13399978432929355	0.6942102155898979	0.3243287446930106	-0.2390037211925064	0.958455749638073	0.14070320781686718	0.7044988954382141	0.762238012571662	0.15690806388182268	0.3112814089042134	0.8017851314730027	0.16276528222937217	-0.14137466992672987	0.8716131183136688	0.1494643340309176	-0.11217116147011588	0.6313432755602202	0.0951904318013117	-0.1189102368079848	0.6796224141859537	0.18795644443160398	-0.24763111883870909	0.9514103280750947	0.19892115023923335	1.285675605135533	0.7388130447383309	0.18979554783792416	1.5256235353092873	0.7148519925635265	0.1900103712507088	1.4074686162072827	0.6637562704733986	0.35599677464997037	1.193401248378555	0.7497219612197179	0.41423958994182003	0.9293608353371849	0.7936722931529242	0.409568383727049	0.7227000041575333	0.6576484032644061	0.34035383250139756	0.6184771612000795	0.6223577840409444	0.36949046238357897	0.5803850673390923	0.6587061466791255	0.40732500454172893	0.5617192509481138	0.7014393948088502	0.04788091803484248	1.1776150184244643	0.7884697186229228	0.03536941621520508	0.9021493526892651	0.7389528509339323	0.05414149434476273	0.6947772282256943	0.7084301106254453	0.10956354356122125	0.6128612559524819	0.6731138573918205	0.08534575820950487	0.598576921791016	0.6346756303940179	0.03558523407163947	0.5813628234728693	0.7051336240450099	
